<svg preserveAspectRatio="none" width="100%" height="100%" overflow="visible" style="display: block;" viewBox="0 0 590 780" fill="none" xmlns="http://www.w3.org/2000/svg">
<g id="Organic Blob S &#226;&#128;&#148; Hero">
<path id="Vector" d="M315.412 78.5937C334.848 75.8513 365.564 83.0514 383.507 91.1268C414.372 104.648 438.492 130.02 450.442 161.523C480.818 242.047 418.868 327.782 332.955 278.807C314.71 268.407 290.921 245.369 267.791 254.235C259.958 257.305 253.666 263.361 250.3 271.071C246.526 279.443 246.309 288.987 249.701 297.52C266.129 338.327 325.88 354.995 365.445 357.488C393.352 359.246 414.765 359.31 441.17 370.419C507.862 398.475 547.343 480.605 518.287 548.759C510.873 566.19 499.442 581.617 484.914 593.775C435.375 635.869 382.824 625.449 325.948 648.23C312.914 653.566 300.391 660.074 288.533 667.668C271.641 678.405 258.935 688.431 240.072 695.971C191.506 712.724 143.7 692.58 106.634 659.967C81.1074 637.23 63.8229 605.058 62.1562 570.598C59.549 516.686 100.093 445.916 159.227 443.582C192.374 442.275 220.576 462.413 238.137 489.091C241.944 494.874 247.375 500.999 252.343 505.869C283.989 536.135 315.703 504.642 311.273 468.026C308.359 443.935 293.433 427.363 272.775 415.935C248.809 402.676 221.892 401.657 196.498 392.7C180.694 387.152 166.068 378.693 153.378 367.762C125.531 343.266 108.549 308.717 106.164 271.706C103.727 235.814 116.55 197.437 140.23 170.327C147.767 161.74 156.31 154.092 165.675 147.547C180.987 136.746 197.395 130.09 212.954 120.611C248.396 99.017 272.489 81.5413 315.412 78.5937Z" fill="#FD618E"/>
</g>
</svg>
